<?xml version="1.0" encoding="utf-8"?>
<!-- Generator: Adobe Illustrator 15.1.0, SVG Export Plug-In . SVG Version: 6.00 Build 0)  -->
<!DOCTYPE svg PUBLIC "-//W3C//DTD SVG 1.1//EN" "http://www.w3.org/Graphics/SVG/1.1/DTD/svg11.dtd">
<svg version="1.1" id="Layer_1" xmlns="http://www.w3.org/2000/svg" xmlns:xlink="http://www.w3.org/1999/xlink" x="0px" y="0px"
	 width="400px" height="400px" viewBox="0 0 400 400" enable-background="new 0 0 400 400" xml:space="preserve">
<g>
	<path d="M314.623,385.376L15.889,86.643c-19.526-19.526-19.526-51.185,0-70.711c19.526-19.526,51.184-19.526,70.71,0
		l298.734,298.734c19.526,19.526,19.526,51.185,0,70.71C365.808,404.902,334.149,404.902,314.623,385.376z"/>
</g>
<g>
	<path d="M385.022,85.648L85.554,385.115c-19.526,19.526-51.184,19.527-70.711,0c-19.525-19.525-19.526-51.185,0-70.711
		L314.312,14.938c19.526-19.526,51.186-19.526,70.711,0C404.549,34.464,404.549,66.122,385.022,85.648z"/>
</g>
<g>
	<path d="M314.623,385.375L15.889,86.642c-19.526-19.526-19.527-51.184,0-70.711c19.525-19.525,51.185-19.526,70.711,0
		l298.734,298.734c19.526,19.526,19.525,51.185,0,70.71C365.807,404.902,334.149,404.901,314.623,385.375z"/>
</g>
</svg>
