<?xml version="1.0" encoding="utf-8"?>
<!-- Generator: Adobe Illustrator 15.1.0, SVG Export Plug-In . SVG Version: 6.00 Build 0)  -->
<!DOCTYPE svg PUBLIC "-//W3C//DTD SVG 1.1//EN" "http://www.w3.org/Graphics/SVG/1.1/DTD/svg11.dtd">
<svg version="1.1" id="Layer_1" xmlns="http://www.w3.org/2000/svg" xmlns:xlink="http://www.w3.org/1999/xlink" x="0px" y="0px"
	 width="400px" height="400px" viewBox="0 0 400 400" enable-background="new 0 0 400 400" xml:space="preserve">
<g>
	<path d="M349.917,250.001H50c-27.614,0-50-22.386-50-50s22.386-50,50-50h299.917c27.614,0,50,22.386,50,50
		S377.531,250.001,349.917,250.001z"/>
</g>
<g>
	<path d="M349.917,250.001H50c-27.614,0-50-22.385-50-50c0-27.613,22.386-50,50-50h299.917c27.614,0,50,22.387,50,50
		C399.917,227.616,377.531,250.001,349.917,250.001z"/>
</g>
<g>
	<path d="M349.917,250H50c-27.614,0-50-22.385-50-50c0-27.613,22.386-50,50-50h299.917c27.614,0,50,22.387,50,50
		C399.917,227.615,377.531,250,349.917,250z"/>
</g>
</svg>
